<svg xmlns="http://www.w3.org/2000/svg" width="249.734" height="77.503" viewBox="0 0 249.734 77.503">
  <g id="whipflip-logo" transform="translate(-255 -20.958)">
    <g id="Group_4" data-name="Group 4" transform="translate(255 20.958)">
      <path id="Path_3" data-name="Path 3" d="M337.09,35.842H358V70.863a3.455,3.455,0,0,0,3.625,3.179,3.527,3.527,0,0,0,3.68-3.179V35.842H387.22V70.863a3.438,3.438,0,0,0,3.678,3.179,3.118,3.118,0,0,0,3.412-3.179V35.842h21.029V73.011c.491,10.883-9.283,21.114-21.029,21.114-12.882-.568-18.047-8.223-18.047-8.223s-5.069,8.791-18.805,8.223c-18.189-.095-20.267-17.336-20.368-21.114Z" transform="translate(-337.09 -26.15)" fill="#00b0f0"/>
      <path id="Path_4" data-name="Path 4" d="M418.188,57.037H426.8V70.553s1.841-4.452,6.414-4.088c6.087.182,6.269,5.993,6.269,7.268,0,6,.144,16.784.144,16.784h-9.34s.131-9,.172-13.059c-.071-.42.212-2.877-1.484-2.968-1.908.121-2.174,2.147-2.174,3.483V90.517h-8.617Z" transform="translate(-329.712 -24.222)" fill="#00b0f0"/>
      <rect id="Rectangle_20" data-name="Rectangle 20" width="9.819" height="26.183" transform="translate(115.545 41.502)" fill="#00b0f0"/>
      <circle id="Ellipse_1" data-name="Ellipse 1" cx="4.909" cy="4.909" r="4.909" transform="translate(115.545 29.501)" fill="#00b0f0"/>
      <circle id="Ellipse_4" data-name="Ellipse 4" cx="4.909" cy="4.909" r="4.909" transform="translate(209.368 29.501)" fill="#ffc000"/>
      <path id="Subtraction_1" data-name="Subtraction 1" d="M8.378,37.093H0V14.183H.011C0,13.978,0,13.809,0,13.637A13.838,13.838,0,0,1,3.834,4,12.722,12.722,0,0,1,22.348,4a13.835,13.835,0,0,1,3.835,9.642,13.836,13.836,0,0,1-3.835,9.643,12.727,12.727,0,0,1-10.828,3.9V18.409a4,4,0,0,0,1.048.137,4.284,4.284,0,0,0,4.19-4.363,4.285,4.285,0,0,0-4.19-4.364,4.285,4.285,0,0,0-4.19,4.364V37.092Z" transform="translate(130.819 40.41)" fill="#00b0f0"/>
      <path id="Subtraction_3" data-name="Subtraction 3" d="M8.378,37.093H0V14.183H.011C0,13.978,0,13.809,0,13.637A13.838,13.838,0,0,1,3.834,4,12.722,12.722,0,0,1,22.348,4a13.835,13.835,0,0,1,3.835,9.642,13.836,13.836,0,0,1-3.835,9.643,12.727,12.727,0,0,1-10.828,3.9V18.409a4,4,0,0,0,1.048.137,4.284,4.284,0,0,0,4.19-4.363,4.285,4.285,0,0,0-4.19-4.364,4.285,4.285,0,0,0-4.19,4.364V37.092Z" transform="translate(223.551 40.41)" fill="#ffc000"/>
      <path id="Path_6" data-name="Path 6" d="M487.2,93.253h16.365V74.788h7.855V57.333h-7.855v-5c0-8.1,8.728-7.658,8.728-7.658V26.961s-11.382-.362-18.33,7.2S487.25,52.082,487.2,54.481,487.2,93.253,487.2,93.253Z" transform="translate(-323.436 -26.958)" fill="#ffc000"/>
      <rect id="Rectangle_23" data-name="Rectangle 23" width="9.819" height="34.911" transform="translate(194.095 32.774)" fill="#ffc000"/>
      <rect id="Rectangle_24" data-name="Rectangle 24" width="9.819" height="26.183" transform="translate(209.368 41.502)" fill="#ffc000"/>
    </g>
  </g>
</svg>
